<svg xmlns="http://www.w3.org/2000/svg" version="1.1" xmlns:xlink="http://www.w3.org/1999/xlink" xmlns:svgjs="http://svgjs.dev/svgjs" width="2200" height="100%" preserveAspectRatio="none" viewBox="0 0 2200 560"><g mask="url(&quot;#SvgjsMask1116&quot;)" fill="none"><path d="M -648.854666382351,218 C -504.85,277 -216.85,502 71.145333617649,513 C 359.15,524 503.15,288.6 791.145333617649,273 C 1079.15,257.4 1381.37,446.6 1511.145333617649,435 C 1640.92,423.4 1454.23,259 2200,215" stroke="rgba(170, 170, 176, 1)" stroke-width="2"></path><path d="M -223.53085541673403,165 C -79.53,207.8 208.47,368.2 496.469144583266,379 C 784.47,389.8 928.47,203.2 1216.469144583266,219 C 1504.47,234.8 1891.76,453.6 1936.469144583266,458 C 1981.18,462.4 1539.29,284.4 2200,241" stroke="rgba(170, 170, 176, 1)" stroke-width="2"></path><path d="M -292.44779100995135,503 C -148.45,443.2 139.55,230.4 427.55220899004865,204 C 715.55,177.6 859.55,403.6 1147.5522089900487,371 C 1435.55,338.4 1809.06,22.2 1867.5522089900487,41 C 1926.04,59.8 1525.51,380.2 2200,465" stroke="rgba(193, 193, 198, 1)" stroke-width="2"></path><path d="M -1430.3076940365058,59 C -1286.31,140.8 -998.31,439.4 -710.3076940365057,468 C -422.31,496.6 -278.31,233.8 9.692305963494277,202 C 297.69,170.2 443.63,342 729.6923059634943,309 C 1015.75,276 1297.94,91.4 2200,37" stroke="rgba(170, 170, 176, 1)" stroke-width="2"></path><path d="M -233.7997310729038,37 C -89.8,134.4 198.2,524 486.2002689270962,524 C 774.2,524 918.2,69 1206.2002689270962,37 C 1494.2,5 1879.44,315.6 1926.2002689270962,364 C 1972.96,412.4 1537.24,296 2200,279" stroke="rgba(170, 170, 176, 1)" stroke-width="2"></path></g><defs><mask id="SvgjsMask1116"><rect width="2200" height="560" fill="#ffffff"></rect></mask></defs></svg>